REM DIRINDEX 1\2\6,1\2\7,1\2\8,1\3\9,1\3\10,1\3\11,1\4\12,1\4\13,1\4\14,1\5\15,1\5\16,1\5\17,1\5\18
REM DIRNAME folder01,folder02,folder03,folder04,folder05,folder06,folder07,folder08,folder09,folder10,folder11,folder12,folder13,folder14,folder15,folder16,folder17,folder18
TITLE ""
FILE "2Q_k_091-100.mp3" MP3
  TRACK 01 AUDIO
    TITLE "9:cjc019_1944"
    INDEX 01 00:00:00
  TRACK 02 AUDIO
    TITLE "0:"
    INDEX 01 00:02:14
  TRACK 03 AUDIO
    TITLE "10:cjc019_1945"
    INDEX 01 00:02:69
  TRACK 04 AUDIO
    TITLE "0:"
    INDEX 01 00:05:26
  TRACK 05 AUDIO
    TITLE "11:cjc019_1946"
    INDEX 01 00:06:04
  TRACK 06 AUDIO
    TITLE "11:cjc019_1947"
    INDEX 01 00:09:16
  TRACK 07 AUDIO
    TITLE "0:"
    INDEX 01 00:13:37
  TRACK 08 AUDIO
    TITLE "9:cjc019_1948"
    INDEX 01 00:14:15
  TRACK 09 AUDIO
    TITLE "0:"
    INDEX 01 00:16:02
  TRACK 10 AUDIO
    TITLE "10:cjc019_1949"
    INDEX 01 00:16:57
  TRACK 11 AUDIO
    TITLE "0:"
    INDEX 01 00:20:02
  TRACK 12 AUDIO
    TITLE "11:cjc019_1950"
    INDEX 01 00:20:55
  TRACK 13 AUDIO
    TITLE "11:cjc019_1951"
    INDEX 01 00:23:01
  TRACK 14 AUDIO
    TITLE "0:"
    INDEX 01 00:26:42
  TRACK 15 AUDIO
    TITLE "9:cjc019_1952"
    INDEX 01 00:27:18
  TRACK 16 AUDIO
    TITLE "0:"
    INDEX 01 00:29:42
  TRACK 17 AUDIO
    TITLE "10:cjc019_1953"
    INDEX 01 00:30:24
  TRACK 18 AUDIO
    TITLE "0:"
    INDEX 01 00:32:17
  TRACK 19 AUDIO
    TITLE "11:cjc019_1954"
    INDEX 01 00:32:70
  TRACK 20 AUDIO
    TITLE "11:cjc019_1955"
    INDEX 01 00:34:55
  TRACK 21 AUDIO
    TITLE "0:"
    INDEX 01 00:36:62
  TRACK 22 AUDIO
    TITLE "9:cjc019_1956"
    INDEX 01 00:37:44
  TRACK 23 AUDIO
    TITLE "0:"
    INDEX 01 00:39:27
  TRACK 24 AUDIO
    TITLE "10:cjc019_1957"
    INDEX 01 00:40:09
  TRACK 25 AUDIO
    TITLE "0:"
    INDEX 01 00:41:45
  TRACK 26 AUDIO
    TITLE "11:cjc019_1958"
    INDEX 01 00:42:23
  TRACK 27 AUDIO
    TITLE "11:cjc019_1959"
    INDEX 01 00:44:07
  TRACK 28 AUDIO
    TITLE "0:"
    INDEX 01 00:46:02
  TRACK 29 AUDIO
    TITLE "9:cjc019_1960"
    INDEX 01 00:46:60
  TRACK 30 AUDIO
    TITLE "0:"
    INDEX 01 00:48:63
  TRACK 31 AUDIO
    TITLE "10:cjc019_1961"
    INDEX 01 00:49:31
  TRACK 32 AUDIO
    TITLE "0:"
    INDEX 01 00:50:70
  TRACK 33 AUDIO
    TITLE "11:cjc019_1962"
    INDEX 01 00:51:50
  TRACK 34 AUDIO
    TITLE "11:cjc019_1963"
    INDEX 01 00:54:32
  TRACK 35 AUDIO
    TITLE "0:"
    INDEX 01 00:56:39
  TRACK 36 AUDIO
    TITLE "9:cjc019_1964"
    INDEX 01 00:57:17
  TRACK 37 AUDIO
    TITLE "0:"
    INDEX 01 00:59:14
  TRACK 38 AUDIO
    TITLE "10:cjc019_1965"
    INDEX 01 00:59:61
  TRACK 39 AUDIO
    TITLE "0:"
    INDEX 01 01:01:60
  TRACK 40 AUDIO
    TITLE "11:cjc019_1966"
    INDEX 01 01:02:40
  TRACK 41 AUDIO
    TITLE "11:cjc019_1967"
    INDEX 01 01:09:52
  TRACK 42 AUDIO
    TITLE "0:"
    INDEX 01 01:11:13
  TRACK 43 AUDIO
    TITLE "9:cjc019_1968"
    INDEX 01 01:11:64
  TRACK 44 AUDIO
    TITLE "0:"
    INDEX 01 01:13:53
  TRACK 45 AUDIO
    TITLE "10:cjc019_1969"
    INDEX 01 01:14:31
  TRACK 46 AUDIO
    TITLE "0:"
    INDEX 01 01:17:12
  TRACK 47 AUDIO
    TITLE "11:cjc019_1970"
    INDEX 01 01:17:51
  TRACK 48 AUDIO
    TITLE "11:cjc019_1971"
    INDEX 01 01:22:35
  TRACK 49 AUDIO
    TITLE "0:"
    INDEX 01 01:26:58
  TRACK 50 AUDIO
    TITLE "9:cjc019_1972"
    INDEX 01 01:27:34
  TRACK 51 AUDIO
    TITLE "0:"
    INDEX 01 01:29:50
  TRACK 52 AUDIO
    TITLE "10:cjc019_1973"
    INDEX 01 01:30:28
  TRACK 53 AUDIO
    TITLE "0:"
    INDEX 01 01:33:72
  TRACK 54 AUDIO
    TITLE "11:cjc019_1974"
    INDEX 01 01:34:46
  TRACK 55 AUDIO
    TITLE "11:cjc019_1975"
    INDEX 01 01:37:24
  TRACK 56 AUDIO
    TITLE "0:"
    INDEX 01 01:42:18
  TRACK 57 AUDIO
    TITLE "9:cjc019_1976"
    INDEX 01 01:42:71
  TRACK 58 AUDIO
    TITLE "0:"
    INDEX 01 01:44:38
  TRACK 59 AUDIO
    TITLE "10:cjc019_1977"
    INDEX 01 01:45:20
  TRACK 60 AUDIO
    TITLE "0:"
    INDEX 01 01:46:41
  TRACK 61 AUDIO
    TITLE "11:cjc019_1978"
    INDEX 01 01:47:21
  TRACK 62 AUDIO
    TITLE "11:cjc019_1979"
    INDEX 01 01:53:35
  TRACK 63 AUDIO
    TITLE "0:"
    INDEX 01 01:56:37
  TRACK 64 AUDIO
    TITLE "9:cjc019_1980"
    INDEX 01 01:57:15
  TRACK 65 AUDIO
    TITLE "0:"
    INDEX 01 01:59:38
  TRACK 66 AUDIO
    TITLE "10:cjc019_1981"
    INDEX 01 02:00:20
  TRACK 67 AUDIO
    TITLE "0:"
    INDEX 01 02:02:07
  TRACK 68 AUDIO
    TITLE "11:cjc019_1982"
    INDEX 01 02:02:66
  TRACK 69 AUDIO
    TITLE "11:cjc019_1983"
    INDEX 01 02:05:01
  TRACK 70 AUDIO
    TITLE "0:"
    INDEX 01 02:08:21
